<svg width="42" height="43" viewBox="0 0 42 43" fill="none" xmlns="http://www.w3.org/2000/svg">
<rect y="0.5" width="42" height="42" rx="10" fill="#039EA2"/>
<path d="M16.5 15.5L16.6819 14.7724C16.2801 14.6719 15.8729 14.9163 15.7724 15.3181L16.5 15.5ZM16.5 27.5L15.7724 27.6819C15.8729 28.0837 16.2801 28.3281 16.6819 28.2276L16.5 27.5ZM26.5 21.5L27.124 21.916C27.292 21.6641 27.292 21.3359 27.124 21.084L26.5 21.5ZM16.5 27.5C17.2276 27.3181 17.2276 27.3183 17.2277 27.3184C17.2277 27.3184 17.2277 27.3186 17.2278 27.3187C17.2278 27.3188 17.2278 27.319 17.2278 27.3191C17.2279 27.3193 17.2279 27.3194 17.2279 27.3193C17.2279 27.3192 17.2277 27.3187 17.2275 27.3176C17.227 27.3155 17.226 27.3114 17.2246 27.3054C17.2218 27.2934 17.2172 27.2736 17.2112 27.246C17.1991 27.1908 17.1811 27.1044 17.159 26.9868C17.1149 26.7516 17.0548 26.3917 16.9942 25.907C16.873 24.9376 16.75 23.4687 16.75 21.5H15.25C15.25 23.5313 15.377 25.0624 15.5058 26.093C15.5702 26.6083 15.6351 26.9984 15.6847 27.2632C15.7095 27.3956 15.7306 27.4967 15.7458 27.5665C15.7535 27.6014 15.7597 27.6285 15.7642 27.6477C15.7664 27.6573 15.7683 27.665 15.7696 27.6707C15.7703 27.6735 15.7709 27.6759 15.7714 27.6778C15.7716 27.6787 15.7718 27.6795 15.772 27.6802C15.7721 27.6805 15.7721 27.6809 15.7722 27.6811C15.7722 27.6813 15.7723 27.6815 15.7723 27.6815C15.7723 27.6817 15.7724 27.6819 16.5 27.5ZM16.75 21.5C16.75 19.5313 16.873 18.0624 16.9942 17.093C17.0548 16.6083 17.1149 16.2484 17.159 16.0132C17.1811 15.8956 17.1991 15.8092 17.2112 15.754C17.2172 15.7264 17.2218 15.7066 17.2246 15.6946C17.226 15.6886 17.227 15.6845 17.2275 15.6824C17.2277 15.6813 17.2279 15.6808 17.2279 15.6807C17.2279 15.6806 17.2279 15.6807 17.2278 15.6809C17.2278 15.681 17.2278 15.6812 17.2278 15.6813C17.2277 15.6814 17.2277 15.6815 17.2277 15.6816C17.2276 15.6817 17.2276 15.6819 16.5 15.5C15.7724 15.3181 15.7723 15.3183 15.7723 15.3185C15.7723 15.3185 15.7722 15.3187 15.7722 15.3189C15.7721 15.3191 15.7721 15.3195 15.772 15.3198C15.7718 15.3205 15.7716 15.3213 15.7714 15.3222C15.7709 15.3241 15.7703 15.3265 15.7696 15.3293C15.7683 15.335 15.7664 15.3427 15.7642 15.3523C15.7597 15.3715 15.7535 15.3986 15.7458 15.4335C15.7306 15.5033 15.7095 15.6044 15.6847 15.7368C15.6351 16.0016 15.5702 16.3917 15.5058 16.907C15.377 17.9376 15.25 19.4687 15.25 21.5H16.75ZM16.5 15.5C16.3181 16.2276 16.3179 16.2276 16.3177 16.2275C16.3177 16.2275 16.3175 16.2275 16.3174 16.2274C16.3172 16.2274 16.3171 16.2274 16.317 16.2273C16.3167 16.2273 16.3166 16.2272 16.3166 16.2272C16.3165 16.2272 16.317 16.2273 16.3179 16.2276C16.3198 16.2281 16.3236 16.2291 16.3294 16.2306C16.3408 16.2337 16.36 16.2389 16.3867 16.2465C16.4402 16.2618 16.5239 16.2867 16.6369 16.3232C16.863 16.3961 17.2062 16.5153 17.659 16.6964C18.5643 17.0585 19.9081 17.6684 21.6279 18.6512L22.3721 17.3488C20.5919 16.3316 19.1857 15.6915 18.216 15.3036C17.7313 15.1097 17.3558 14.9789 17.0974 14.8956C16.9683 14.8539 16.8684 14.8241 16.7988 14.8042C16.764 14.7943 16.7368 14.7868 16.7173 14.7816C16.7075 14.779 16.6997 14.7769 16.6938 14.7754C16.6908 14.7747 16.6884 14.774 16.6864 14.7735C16.6854 14.7733 16.6845 14.7731 16.6838 14.7729C16.6834 14.7728 16.6831 14.7727 16.6827 14.7726C16.6826 14.7726 16.6824 14.7725 16.6823 14.7725C16.6821 14.7724 16.6819 14.7724 16.5 15.5ZM21.6279 18.6512C23.3344 19.6263 24.4142 20.4697 25.058 21.055C25.3799 21.3476 25.5932 21.5761 25.7214 21.7246C25.7856 21.7989 25.8286 21.8533 25.8533 21.8858C25.8657 21.902 25.8735 21.9129 25.8772 21.918C25.879 21.9205 25.8798 21.9217 25.8796 21.9214C25.8795 21.9212 25.8791 21.9207 25.8785 21.9198C25.8782 21.9193 25.8778 21.9188 25.8774 21.9182C25.8772 21.9179 25.877 21.9175 25.8767 21.9172C25.8766 21.917 25.8764 21.9167 25.8764 21.9166C25.8762 21.9163 25.876 21.916 26.5 21.5C27.124 21.084 27.1238 21.0837 27.1236 21.0833C27.1235 21.0832 27.1233 21.0829 27.1232 21.0827C27.1229 21.0822 27.1226 21.0818 27.1222 21.0813C27.1216 21.0803 27.1208 21.0792 27.12 21.078C27.1184 21.0757 27.1166 21.073 27.1145 21.0699C27.1103 21.0638 27.105 21.0563 27.0987 21.0474C27.0859 21.0295 27.0689 21.0062 27.0471 20.9775C27.0035 20.9202 26.941 20.8417 26.8567 20.7442C26.6881 20.5489 26.4326 20.2774 26.067 19.945C25.3358 19.2803 24.1656 18.3737 22.3721 17.3488L21.6279 18.6512ZM26.5 21.5C25.876 21.084 25.8762 21.0837 25.8764 21.0834C25.8764 21.0833 25.8766 21.083 25.8767 21.0828C25.877 21.0825 25.8772 21.0821 25.8774 21.0818C25.8778 21.0812 25.8782 21.0807 25.8785 21.0802C25.8791 21.0793 25.8795 21.0788 25.8796 21.0786C25.8798 21.0783 25.879 21.0795 25.8772 21.082C25.8735 21.0871 25.8657 21.098 25.8533 21.1142C25.8286 21.1467 25.7856 21.2011 25.7214 21.2754C25.5932 21.4239 25.3799 21.6524 25.058 21.945C24.4142 22.5303 23.3344 23.3737 21.6279 24.3488L22.3721 25.6512C24.1656 24.6263 25.3358 23.7197 26.067 23.055C26.4326 22.7226 26.6881 22.4511 26.8567 22.2558C26.941 22.1583 27.0035 22.0798 27.0471 22.0225C27.0689 21.9938 27.0859 21.9705 27.0987 21.9526C27.105 21.9437 27.1103 21.9362 27.1145 21.9301C27.1166 21.927 27.1184 21.9243 27.12 21.922C27.1208 21.9208 27.1216 21.9197 27.1222 21.9187C27.1226 21.9182 27.1229 21.9178 27.1232 21.9173C27.1233 21.9171 27.1235 21.9168 27.1236 21.9167C27.1238 21.9163 27.124 21.916 26.5 21.5ZM21.6279 24.3488C19.9081 25.3316 18.5643 25.9415 17.659 26.3036C17.2062 26.4847 16.863 26.6039 16.6369 26.6768C16.5239 26.7133 16.4402 26.7382 16.3867 26.7535C16.36 26.7611 16.3408 26.7663 16.3294 26.7694C16.3236 26.7709 16.3198 26.7719 16.3179 26.7724C16.317 26.7727 16.3165 26.7728 16.3166 26.7728C16.3166 26.7728 16.3167 26.7727 16.317 26.7727C16.3171 26.7726 16.3172 26.7726 16.3174 26.7726C16.3175 26.7725 16.3177 26.7725 16.3177 26.7725C16.3179 26.7724 16.3181 26.7724 16.5 27.5C16.6819 28.2276 16.6821 28.2276 16.6823 28.2275C16.6824 28.2275 16.6826 28.2274 16.6827 28.2274C16.6831 28.2273 16.6834 28.2272 16.6838 28.2271C16.6845 28.2269 16.6854 28.2267 16.6864 28.2265C16.6884 28.226 16.6908 28.2253 16.6938 28.2246C16.6997 28.2231 16.7075 28.221 16.7173 28.2184C16.7368 28.2132 16.764 28.2057 16.7988 28.1958C16.8684 28.1759 16.9683 28.1461 17.0974 28.1044C17.3558 28.0211 17.7313 27.8903 18.216 27.6964C19.1857 27.3085 20.5919 26.6684 22.3721 25.6512L21.6279 24.3488Z" fill="white"/>
</svg>
