<svg width="46" height="12" viewBox="0 0 46 12" fill="none" xmlns="http://www.w3.org/2000/svg">
<path d="M45.7248 11.4933C46.0708 8.95443 42.4883 6.86121 39.797 6.64427C38.5129 6.54459 37.1761 6.73808 35.9624 6.31592C33.3239 5.39538 32.2743 1.98877 29.7003 0.904051C27.7772 0.0949095 25.5608 0.816103 23.6963 1.75424C21.8317 2.69237 19.9906 3.87677 17.9091 4.00576C16.0974 4.12303 14.1273 3.41943 12.5442 4.33411C11.3715 4.99666 10.7441 6.35697 9.65355 7.16024C8.56297 7.96352 7.20268 8.11011 5.88342 8.18633C4.56417 8.26255 3.19215 8.26841 1.99016 8.81957C0.788177 9.37072 -0.208593 10.6431 0.0376676 11.9447L45.7248 11.4933Z" fill="#F5F5F5"/>
</svg>
