<svg width="14" height="15" viewBox="0 0 14 15" fill="none" xmlns="http://www.w3.org/2000/svg">
<path d="M6.44075 1.91578C6.63963 1.39121 7.39227 1.39121 7.59177 1.91578L8.87828 5.47957C8.92316 5.59566 9.00219 5.69541 9.10494 5.76565C9.20769 5.83589 9.32933 5.87331 9.45379 5.87299L12.6154 5.87299C13.1996 5.87299 13.4544 6.60016 12.9951 6.95629L10.7453 8.98058C10.6445 9.05806 10.5708 9.16547 10.5349 9.2874C10.4989 9.40933 10.5025 9.53952 10.5451 9.65928L11.3668 13.1417C11.5669 13.701 10.9193 14.1815 10.4295 13.8371L7.37362 11.898C7.26897 11.8244 7.14418 11.785 7.01626 11.785C6.88835 11.785 6.76355 11.8244 6.6589 11.898L3.60298 13.8371C3.11386 14.1815 2.46563 13.7004 2.66576 13.1417L3.48738 9.65928C3.53 9.53952 3.53359 9.40933 3.49764 9.2874C3.46169 9.16547 3.38804 9.05806 3.28726 8.98058L1.03742 6.95629C0.577514 6.60016 0.833572 5.87299 1.41654 5.87299L4.57811 5.87299C4.7026 5.8734 4.82427 5.83601 4.92704 5.76576C5.0298 5.69551 5.10882 5.59571 5.15362 5.47957L6.44013 1.91578H6.44075Z" stroke="#FFFFFE" stroke-width="1.36736" stroke-linecap="round" stroke-linejoin="round"/>
</svg>